<svg data-v-423bf9ae="" xmlns="http://www.w3.org/2000/svg" viewBox="0 0 268.82141189429336 60" class="font"><!----><!----><!----><g data-v-423bf9ae="" id="28eaf7f9-72d3-4558-91ec-48a4c7db2555" fill="black" transform="matrix(10.71428498443297,0,0,10.71428498443297,-3.214287136282792,-32.99999788829279)"><path d="M1.85 8.59L1.85 6.77L1.85 6.77Q1.89 6.77 1.97 6.77L1.97 6.77L1.97 6.77Q2.05 6.78 2.12 6.78L2.12 6.78L2.12 6.78Q2.20 6.79 2.30 6.79L2.30 6.79L2.30 6.79Q2.40 6.79 2.49 6.79L2.49 6.79L2.49 6.79Q2.50 6.79 2.51 6.79L2.51 6.79L2.51 6.79Q2.60 7.07 2.65 7.50L2.65 7.50L2.65 7.50Q2.70 7.92 2.73 8.22L2.73 8.22L2.73 8.22Q2.75 8.52 2.80 8.59L2.80 8.59L4.53 8.59L4.53 8.59Q4.43 8.46 4.35 8.21L4.35 8.21L4.35 8.21Q4.27 7.96 4.20 7.70L4.20 7.70L4.20 7.70Q4.14 7.44 4.06 7.18L4.06 7.18L4.06 7.18Q3.97 6.93 3.82 6.74L3.82 6.74L3.82 6.74Q3.67 6.56 3.46 6.51L3.46 6.51L3.46 6.51Q3.85 6.26 4.08 5.84L4.08 5.84L4.08 5.84Q4.32 5.42 4.32 4.88L4.32 4.88L4.32 4.88Q4.32 3.96 3.82 3.52L3.82 3.52L3.82 3.52Q3.32 3.08 2.31 3.08L2.31 3.08L2.31 3.08Q2.03 3.08 1.58 3.10L1.58 3.10L1.58 3.10Q1.14 3.12 0.91 3.12L0.91 3.12L0.30 3.12L0.30 8.59L1.85 8.59ZM2.00 5.90L1.85 5.90L1.85 3.98L1.94 3.98L1.94 3.98Q2.33 3.98 2.55 4.14L2.55 4.14L2.55 4.14Q2.76 4.30 2.76 4.70L2.76 4.70L2.76 5.07L2.76 5.07Q2.76 5.26 2.73 5.40L2.73 5.40L2.73 5.40Q2.70 5.54 2.65 5.63L2.65 5.63L2.65 5.63Q2.59 5.72 2.53 5.77L2.53 5.77L2.53 5.77Q2.46 5.83 2.37 5.85L2.37 5.85L2.37 5.85Q2.27 5.88 2.19 5.89L2.19 5.89L2.19 5.89Q2.11 5.90 2.00 5.90L2.00 5.90ZM6.85 8.22L6.89 8.17L7.04 8.59L8.32 8.59L8.19 8.22L8.19 6.32L8.19 6.32Q8.19 5.81 8.11 5.48L8.11 5.48L8.11 5.48Q8.03 5.14 7.84 4.93L7.84 4.93L7.84 4.93Q7.65 4.71 7.35 4.62L7.35 4.62L7.35 4.62Q7.05 4.53 6.58 4.53L6.58 4.53L6.58 4.53Q6.05 4.53 5.54 4.68L5.54 4.68L5.54 4.68Q5.04 4.84 4.72 5.04L4.72 5.04L5.02 5.68L5.02 5.68Q5.19 5.59 5.51 5.52L5.51 5.52L5.51 5.52Q5.82 5.45 6.11 5.45L6.11 5.45L6.11 5.45Q6.44 5.45 6.60 5.57L6.60 5.57L6.60 5.57Q6.75 5.68 6.75 5.97L6.75 5.97L6.75 6.05L6.75 6.05Q6.59 6.05 6.42 6.07L6.42 6.07L6.42 6.07Q6.24 6.08 6.02 6.12L6.02 6.12L6.02 6.12Q5.81 6.16 5.61 6.23L5.61 6.23L5.61 6.23Q5.41 6.29 5.21 6.40L5.21 6.40L5.21 6.40Q5.02 6.51 4.88 6.65L4.88 6.65L4.88 6.65Q4.74 6.79 4.65 6.99L4.65 6.99L4.65 6.99Q4.56 7.20 4.56 7.44L4.56 7.44L4.56 7.44Q4.56 8.68 5.82 8.68L5.82 8.68L5.82 8.68Q6.01 8.68 6.18 8.63L6.18 8.63L6.18 8.63Q6.36 8.58 6.48 8.50L6.48 8.50L6.48 8.50Q6.61 8.43 6.70 8.35L6.70 8.35L6.70 8.35Q6.80 8.28 6.85 8.22L6.85 8.22ZM6.52 7.86L6.52 7.86L6.52 7.86Q6.13 7.86 6.13 7.28L6.13 7.28L6.13 7.28Q6.13 6.95 6.30 6.80L6.30 6.80L6.30 6.80Q6.46 6.64 6.75 6.64L6.75 6.64L6.75 7.76L6.75 7.76Q6.75 7.76 6.72 7.79L6.72 7.79L6.72 7.79Q6.69 7.81 6.64 7.84L6.64 7.84L6.64 7.84Q6.58 7.86 6.52 7.86ZM8.78 8.59L10.29 8.59L10.29 6.45L10.29 6.45Q10.43 6.20 10.90 6.20L10.90 6.20L10.90 6.20Q11.23 6.20 11.33 6.29L11.33 6.29L11.49 4.63L11.49 4.63Q11.36 4.59 11.25 4.59L11.25 4.59L11.25 4.59Q10.21 4.59 10.02 5.73L10.02 5.73L9.88 4.62L9.51 4.62L8.50 4.87L8.50 5.39L8.78 5.57L8.78 8.59ZM13.95 6.17L13.95 6.17L13.24 6.17L13.24 5.78L13.24 5.78Q13.24 5.61 13.25 5.50L13.25 5.50L13.25 5.50Q13.26 5.39 13.30 5.29L13.30 5.29L13.30 5.29Q13.35 5.18 13.44 5.14L13.44 5.14L13.44 5.14Q13.52 5.09 13.66 5.09L13.66 5.09L13.66 5.09Q13.83 5.09 13.89 5.33L13.89 5.33L13.89 5.33Q13.95 5.58 13.95 6.17ZM13.58 8.68L13.58 8.68L13.58 8.68Q13.86 8.68 14.16 8.62L14.16 8.62L14.16 8.62Q14.47 8.55 14.80 8.37L14.80 8.37L14.80 8.37Q15.14 8.18 15.31 7.90L15.31 7.90L15.04 7.42L15.04 7.42Q14.91 7.55 14.71 7.63L14.71 7.63L14.71 7.63Q14.52 7.72 14.33 7.77L14.33 7.77L14.33 7.77Q14.14 7.81 13.98 7.81L13.98 7.81L13.98 7.81Q13.81 7.81 13.69 7.78L13.69 7.78L13.69 7.78Q13.58 7.75 13.46 7.67L13.46 7.67L13.46 7.67Q13.35 7.58 13.29 7.41L13.29 7.41L13.29 7.41Q13.23 7.23 13.23 6.95L13.23 6.95L13.23 6.86L15.37 6.86L15.37 6.35L15.37 6.35Q15.37 5.39 14.97 4.96L14.97 4.96L14.97 4.96Q14.57 4.53 13.65 4.53L13.65 4.53L13.65 4.53Q12.70 4.53 12.17 5.06L12.17 5.06L12.17 5.06Q11.63 5.60 11.63 6.65L11.63 6.65L11.63 6.65Q11.63 7.08 11.74 7.44L11.74 7.44L11.74 7.44Q11.84 7.80 12.06 8.08L12.06 8.08L12.06 8.08Q12.28 8.37 12.67 8.53L12.67 8.53L12.67 8.53Q13.05 8.68 13.58 8.68ZM15.58 7.91L16.35 8.68L16.52 8.68L17.32 7.91L17.32 7.74L16.52 6.98L16.35 6.98L15.58 7.74L15.58 7.91ZM20.20 7.71L20.41 8.59L22.12 8.59L20.57 3.12L18.64 3.12L18.75 3.50L17.33 8.59L18.70 8.59L18.88 7.71L20.20 7.71ZM19.07 6.76L19.48 4.72L19.97 6.76L19.07 6.76ZM22.31 8.59L23.85 8.59L23.85 6.55L25.11 6.64L25.11 5.48L23.85 5.48L23.85 4.21L25.39 4.31L25.39 3.12L22.31 3.12L22.31 8.59Z"></path></g><!----><!----></svg>